<?xml version="1.0" standalone="no"?>
<!DOCTYPE svg PUBLIC "-//W3C//DTD SVG 20010904//EN"
 "http://www.w3.org/TR/2001/REC-SVG-20010904/DTD/svg10.dtd">
<svg version="1.0" xmlns="http://www.w3.org/2000/svg"
 width="879.000000pt" height="879.000000pt" viewBox="0 0 879.000000 879.000000"
 preserveAspectRatio="xMidYMid meet">
<metadata>
Created by potrace 1.11, written by Peter Selinger 2001-2013
</metadata>
<g transform="translate(0.000000,879.000000) scale(0.100000,-0.100000)"
fill="#000000" stroke="none">
<path d="M2483 7692 l-1903 -1097 0 -2200 0 -2200 1902 -1095 c1046 -602 1907
-1095 1913 -1095 6 0 867 493 1913 1095 l1902 1095 0 2200 0 2200 -1902 1095
c-1045 602 -1906 1096 -1912 1097 -6 1 -867 -492 -1913 -1095z m3580 -422
l1657 -954 0 -1921 0 -1921 -1657 -954 c-912 -525 -1662 -955 -1668 -955 -6 0
-756 430 -1668 955 l-1657 954 0 1921 0 1921 1658 956 c911 526 1662 955 1668
955 5 -1 756 -432 1667 -957z"/>
<path d="M2798 7192 c-874 -503 -1588 -918 -1588 -921 0 -6 1344 -691 1356
-691 4 0 749 377 1656 837 1274 647 1645 840 1636 849 -17 15 -1449 839 -1462
841 -6 0 -725 -411 -1598 -915z"/>
<path d="M4305 6375 c-902 -458 -1639 -837 -1639 -842 1 -4 389 -205 863 -446
l862 -438 1587 806 c873 443 1590 810 1595 814 7 7 -1590 934 -1616 938 -7 1
-750 -373 -1652 -832z"/>
<path d="M1168 5241 c-1 -529 -2 -980 -3 -1003 l0 -43 110 -58 c61 -32 372
-190 693 -353 l582 -295 0 1008 -1 1008 -680 345 c-375 190 -685 347 -690 348
-5 2 -10 -386 -11 -957z"/>
<path d="M6013 5392 l-1583 -805 0 -1004 c0 -557 4 -1003 9 -1003 4 0 722 363
1595 806 l1586 806 0 1004 c0 797 -3 1004 -12 1003 -7 -1 -725 -364 -1595
-807z"/>
<path d="M2640 4446 l0 -1004 858 -436 857 -435 3 997 c1 548 0 1002 -2 1008
-4 10 -1694 874 -1710 874 -3 0 -6 -452 -6 -1004z"/>
<path d="M6890 3740 l-725 -369 -3 -836 c-1 -460 2 -835 6 -833 5 1 333 190
730 418 l721 415 1 788 c0 433 -1 787 -2 787 -2 -1 -329 -167 -728 -370z"/>
<path d="M1170 3318 l1 -783 242 -139 c133 -77 847 -492 1585 -923 739 -431
1348 -783 1353 -783 5 0 9 364 9 898 l0 897 -1588 808 c-874 444 -1592 807
-1595 807 -4 0 -7 -352 -7 -782z"/>
<path d="M5245 2905 l-810 -413 -3 -897 -2 -897 22 14 c13 8 382 221 821 473
l797 459 0 838 c0 461 -3 837 -7 837 -5 -1 -372 -187 -818 -414z"/>
</g>
</svg>
